<?xml version="1.0" encoding="utf-8"?>
<!-- Generator: Adobe Illustrator 25.0.0, SVG Export Plug-In . SVG Version: 6.00 Build 0)  -->
<svg version="1.1" xmlns="http://www.w3.org/2000/svg" xmlns:xlink="http://www.w3.org/1999/xlink" x="0px" y="0px"
	 viewBox="0 0 512 512" style="enable-background:new 0 0 512 512;" xml:space="preserve">
<style type="text/css">
	.st0{fill-rule:evenodd;clip-rule:evenodd;fill:#EB1E26;}
	.st1{fill-rule:evenodd;clip-rule:evenodd;fill:#241336;}
	.st2{fill-rule:evenodd;clip-rule:evenodd;fill:#F0D181;}
	.st3{fill-rule:evenodd;clip-rule:evenodd;fill:#EA1F26;}
	.st4{fill-rule:evenodd;clip-rule:evenodd;fill:#E81E26;}
	.st5{fill-rule:evenodd;clip-rule:evenodd;fill:#FEFEFE;}
	.st6{fill-rule:evenodd;clip-rule:evenodd;fill:#EA1E26;}
</style>
<g id="OBJECTS">
	<g id="BACKGROUND_1_">
	</g>
	<g id="FIST">
		<g>
			<path class="st0" d="M326.77,511.86c-10.93,0.03-21.87,0.07-32.8,0.07c-9.15,0-18.3-0.04-27.45-0.07
				c-0.42-0.4-0.55-0.93-0.54-1.47c0.12-4.88-0.92-9.76-0.09-14.65c0.15-0.88,0.04-1.79,0.06-2.69c0.34-14.2,0.71-28.39,0.83-42.59
				c0.08-9.14-0.11-18.23-0.75-27.33c-0.2-2.86-0.43-5.71-0.8-8.55c-0.1-0.77-0.23-1.54-0.41-2.29c-0.89-3.78-2.55-4.36-5.38-1.62
				c-3.88,3.77-6.43,8.43-7.94,13.6c-6.25,21.45-11.55,43.12-14.94,65.23c-0.99,6.43-2.02,12.85-2.83,19.31
				c-0.13,1.03-0.02,2.18-0.86,3.03c-9.72,0.03-19.45,0.07-29.17,0.08c-5.87,0.01-11.74-0.04-17.61-0.07
				c-0.6-1.02-0.36-2.09-0.11-3.13c5.21-22.64,9-45.56,13.44-68.35c3.88-19.93,6.93-39.99,10.21-60.02
				c1.68-10.25,3.61-20.46,5.51-30.67c0.85-4.56,0.18-8.75-1.7-13.02c-3.48-7.89-8.58-14.53-14.41-20.73
				c-3.31-3.52-6-7.55-9.12-11.24c-5.57-6.6-11.17-13.18-16.38-20.07c-3.38-4.47-6.54-9.1-9.88-13.6
				c-6.24-8.43-13.13-16.36-19.35-24.8c-0.68-0.92-1.82-1.61-1.74-2.99c0.88-0.55,1.31,0.21,1.72,0.69
				c1.79,2.15,3.66,4.22,5.34,6.47c3.32,4.46,7.48,8.13,11.6,11.83c3.89,3.49,7.83,6.95,11.12,11.06c0.15,0.19-0.06-0.03,0.11,0.14
				c5.04,4.97,9.51,10.5,14.86,15.18c2.42,2.12,4.51,4.58,6.87,6.77c8.01,7.46,16,14.94,23.85,22.57c1.96,1.91,3.79,3.96,5.89,5.73
				c3.58,3.01,8.08,4.24,12.12,6.36c1.21,0.63,2.55,1.02,3.75,1.66c2.15,1.14,4.45,1.65,6.82,1.9c14.68,1.58,28.87-0.29,42.68-5.63
				c5.3-2.05,10.6-4.29,16.28-5.2c2.22-0.36,4.47-0.56,6.71-0.81c2.83-0.31,5.41,1.56,6.32,4.74c0.72,2.51,1.01,2.2,3.23,2.33
				c5.76,0.32,10.71-2.06,14.99-5.35c6.84-5.26,13.85-10.3,20.54-15.74c3.78-3.07,7.4-6.4,9.46-11.01c0.2-0.45,0.45-1.24,1.21-0.49
				c0.16,2.15-0.49,4.17-1.2,6.1c-2.18,5.94-4.54,11.82-7.52,17.41c-2.63,4.92-6.33,9.09-9.78,13.42c-2.57,3.21-5.18,6.39-7.65,9.68
				c-2.8,3.74-4.27,7.92-4.16,12.5c0.13,5.43-1.09,10.68-1.7,16c-0.81,7.05-1.37,14.13-1.99,21.21c-0.61,6.95-1.07,13.91-1.63,20.87
				c-0.42,5.17-0.77,10.35-1.19,15.52c-0.44,5.41-0.88,10.82-1.29,16.23c-0.33,4.4-0.58,8.81-0.85,13.21
				c-0.36,5.71-0.53,11.44-0.98,17.14c-0.21,2.62-0.26,5.25-0.35,7.86c-0.24,6.97-0.67,13.95-0.45,20.94
				c0.03,0.84,0.18,1.66,0.26,2.49C327.71,508.69,327.67,510.34,326.77,511.86z"/>
			<path class="st1" d="M142.65,243.17c4.47,5.79,8.81,11.71,13.46,17.36c5.57,6.77,10.56,13.97,15.77,21
				c5.29,7.13,11.1,13.85,16.63,20.78c6.42,8.05,13.53,15.53,19.62,23.86c3.38,4.61,5.7,9.76,7.58,15.14
				c1.15,3.28,0.24,6.55-0.36,9.71c-4.22,22.33-7.57,44.8-11.41,67.18c-2.54,14.81-5.39,29.56-8.18,44.33
				c-2.95,15.58-5.73,31.2-9.35,46.66c-0.2,0.86-0.2,1.77-0.29,2.66c-3.49,0.23-3.48,0.23-3.11-2.84
				c1.93-16.02,4.99-31.85,7.98-47.69c5.07-26.81,9.95-53.66,14.88-80.49c1.42-7.69,3.13-15.32,4.82-22.96
				c0.9-4.06,1.28-8.24,1.79-12.37c0.19-1.51-0.41-2.94-0.95-4.34c-2.72-7.11-6.68-13.49-11.88-19c-3.56-3.78-7-7.64-10.19-11.74
				c-5.31-6.82-11.3-13.08-16.67-19.85c-2.93-3.69-5.73-7.47-8.53-11.26c-5.18-7.01-10.89-13.57-16.56-20.17
				c-4.26-4.97-7.69-10.62-11.98-15.58c-3.37-3.89-5.99-8.3-8.73-12.65c-2.43-3.86-2.49-7.71-0.76-11.77
				c1.9-4.45,4.15-8.73,6.62-12.89c9.82-16.59,20.75-32.46,31.31-48.57c4.02-6.13,8.71-11.8,13.24-17.56
				c5.33-6.77,12.13-9.28,20.51-7.38c0.79,0.18,1.13-0.02,1.53-0.7c8.06-13.76,17.11-26.85,26.57-39.66
				c2.74-3.71,6.06-6.9,9.57-9.85c3.88-3.26,8.3-5.15,13.46-4.65c3.56,0.34,7.03,1.02,10.18,2.93c2.84,1.73,5.72,3.43,8.79,4.75
				c9.9,4.25,11.31,10.12,10.06,19.76c-0.05,0.4-0.14,0.8-0.29,1.6c1.24-0.77,2.21-1.36,3.16-1.98c5.22-3.42,10.79-4.58,17-3.26
				c3.85,0.82,7.63,1.77,11.35,3.04c7.56,2.58,13.55,7.21,17.49,14.19c3.42,6.06,4.65,12.62,3.06,19.52
				c-0.28,1.24,0.1,1.18,1.01,0.89c5.78-1.84,11.21-0.86,16.52,1.9c5.94,3.09,11.48,6.82,16.64,11.03
				c5.33,4.34,9.12,9.75,8.82,17.15c-0.14,3.29-1.36,6.27-2.57,9.27c-0.21,0.54-0.67,0.99-0.6,1.63c0.42,0.28,0.82,0.05,1.21-0.02
				c5.29-0.99,10.06,0.2,14.22,3.59c5.77,4.7,11.4,9.52,16.11,15.39c3.09,3.84,4.14,7.9,3.47,12.65
				c-0.85,6.06-3.76,11.02-7.91,15.32c-4.01,4.16-7.97,8.38-12.3,12.21c-1.25,1.11-1.71,2.17-1.39,3.86
				c1.09,5.8,0.67,11.63-0.98,17.21c-2.66,9.01-4.62,18.14-6.02,27.42c-1.72,11.44-5.51,22.19-10.99,32.39
				c-2.47,4.6-5.43,8.83-8.61,12.93c-4.06,5.22-8.14,10.43-12.18,15.67c-1.87,2.44-2.04,5.45-2.46,8.31
				c-1.36,9.23-1.51,18.56-1.89,27.87c-0.79,19.1-2.18,38.16-3.78,57.21c-1.24,14.76-2.59,29.51-3.27,44.3
				c-0.36,7.69-0.59,15.39-0.78,23.09c-0.04,1.71-0.45,2.56-2.32,2.25c-0.98-0.16-2.01-0.07-3.02-0.1c0.31-2.44,0.15-4.87,0.1-7.32
				c-0.26-12.42,0.58-24.81,1.23-37.2c0.42-7.99,0.85-15.97,1.48-23.94c0.82-10.34,1.65-20.69,2.45-31.03
				c0.65-8.39,1.23-16.78,1.93-25.16c0.69-8.32,1.49-16.62,2.86-24.87c0.41-2.51,0.35-5.12,0.38-7.68
				c0.05-5.64,2.7-10.16,6.06-14.37c3.24-4.05,6.47-8.1,9.78-12.07c5.08-6.09,8.28-13.19,11.2-20.46c1.51-3.77,3.08-7.5,3.45-11.59
				c-0.53-0.73-0.27-1.51-0.08-2.23c1.32-4.95,2.04-10.02,2.75-15.08c0.77-5.44,2.07-10.74,4.12-15.84
				c2.11-5.31,3.06-10.89,3.89-16.65c-0.8,0.14-1.16,0.69-1.62,1.09c-5.14,4.43-10.16,8.99-15.19,13.55
				c-2.03,1.84-3.84,3.91-5.85,5.77c-3.45,3.19-6.84,6.45-10.45,9.47c-6.2,5.18-12.75,5.16-19.54,1.39c-3.43-1.91-6.68-4.01-9.3-7.1
				c-5.08-5.99-5.93-12.53-3.22-19.74c0.16-0.44,0.47-0.84,0.41-1.5c-1.02,0.19-1.84,0.82-2.77,1.11
				c-8.08,2.53-15.88,1.83-23.58-1.69c-4.16-1.9-7.44-4.8-10.12-8.29c-3.13-4.07-4.18-8.96-3.52-14.07
				c0.6-4.71,2.21-9.15,3.72-12.88c-5.46,5.57-11.42,11.57-19.39,15.25c2.81,2.4,5.49,4.71,7.99,7.23c1.22,1.23,2.29,2.59,3.29,4
				c0.52,0.73,0.94,1.54,1.06,2.44c0.14,1.07-0.47,1.57-1.52,1.27c-0.29-0.08-0.54-0.25-0.78-0.42c-4.93-3.33-9.84-6.71-14.59-10.27
				c-2.12-1.59-4.12-2.65-6.7-3.14c-5.97-1.14-10.96-4.42-15.88-7.82c-2.86-1.99-5.39-4.28-7.65-6.92
				c-1.31-1.52-1.91-3.26-2.19-5.19c-0.29-1.95-0.33-1.96-2.19-1.61c-2.1,0.39-3.99-0.07-5.37-1.16
				c7.46,3.59,11.83,10.63,16.35,17.48c4.63,7.02,8.87,14.29,12.78,21.74c1.91,3.65,3.49,7.45,5.15,11.23
				c4.39,10.61,7.77,21.52,9.46,32.91c0.85,5.72,1.18,11.49,1.28,17.27c0.01,0.65,0.07,1.33-0.19,1.94
				c-0.34,0.81-0.85,1.18-1.57,0.33c-1.08-4.16-1.69-8.42-2.62-12.61c-2.62-11.75-6.32-23.15-11.25-34.12
				c-7.05-15.69-16.4-30.01-26.54-43.82c-2.36-3.21-5.67-5.42-8.73-7.88c-0.89-0.72-1.53-0.1-2.22,0.38
				c-2.84,1.98-5.76,3.81-9.01,5.04c-0.22,0.08-0.44,0.2-0.67,0.26c-0.67,0.18-1.47,0.65-1.94-0.13c-0.46-0.77,0.27-1.35,0.77-1.81
				c4.67-4.38,8.67-9.33,12.21-14.67c1.68-2.54,3.18-5.17,4.28-8.03c1.41-3.65,3.91-4.75,7.55-3.23c3.95,1.65,7.76,3.61,11.67,5.35
				c5.13,2.3,10.51,3.75,15.95,5.02c2.29,0.53,4.63,0.12,6.91-0.26c6.94-1.17,13.72-2.86,20.03-6.14c5.1-2.65,6.62-7.34,7.32-12.52
				c0.13-0.99,0.05-2.03,0.22-2.92c-0.45,3.44-2.23,6.35-4.72,8.75c-4.3,4.14-9.4,6.24-15.45,6.86c-5.55,0.57-10.88,0.15-16.25-0.95
				c-3.51-0.72-6.4-2.47-8.6-5.34c-0.2-0.37-0.39-0.77-0.41-1.18c-0.58-9.01-0.82-17.95,4.49-25.93c1.12-1.67,2.5-3.14,4.13-4.89
				c-12.59-4.18-25.04-7.95-36.84-13.38c-0.57,0.49-0.23,0.96-0.12,1.37c0.92,3.66,0.32,7.23-0.61,10.78
				c-0.15,0.56-0.31,1.27-1.07,1.2c-0.67-0.06-0.97-0.65-1.11-1.25c-0.38-1.57-0.64-3.16-0.89-4.75c-0.35-2.18-0.99-4.3-1.6-6.43
				c-0.91-3.19-1.1-3.35-4.68-3.59c0.17,1.08,0.59,2.07,0.9,3.07c1.07,3.42,0.79,6.84,0.08,10.27c-0.29,1.4-0.56,2.81-0.83,4.22
				c-0.12,0.59-0.26,1.24-1.06,1.18c-0.68-0.05-0.77-0.64-0.9-1.17c-0.7-2.85-1.03-5.76-1.44-8.65c-0.44-3.16-1.93-5.87-3.35-8.63
				c-0.3-0.6-0.76-0.69-1.34-0.49c-1.35,0.45-2.65,0.94-3.74,1.98c-2.87,2.73-5.07,6.01-7.5,9.09
				c-6.71,8.53-12.89,17.44-18.65,26.66c-2.68,4.3-5.72,8.37-8.46,12.63c-6.25,9.73-12.54,19.43-17.93,29.69
				c-2.1,3.99-2.32,7.42,0.5,11.26c2.65,3.61,5.28,7.2,8.23,10.56C141.96,241.56,142.67,242.17,142.65,243.17z"/>
			<path class="st2" d="M232.89,511.84c0.61-6.42,1.64-12.78,2.63-19.15c2.45-15.87,5.48-31.63,9.62-47.15
				c2.22-8.3,4.09-16.71,7.08-24.77c1.42-3.82,3.62-7.25,6.44-10.23c1.21-1.29,2.77-2.56,4.48-2.11c1.76,0.46,1.99,2.53,2.29,4.15
				c1.11,6.06,1.52,12.21,1.75,18.34c0.55,14.62,0.2,29.26-0.11,43.88c-0.16,7.63-0.63,15.27-0.8,22.91
				c-0.1,4.71,0.15,9.43,0.24,14.14C255.31,511.85,244.1,511.84,232.89,511.84z"/>
			<path class="st2" d="M256.81,309.75c1.37,1.05,1.12-0.18,1.1-0.85c-0.08-2.92-0.17-5.85-0.33-8.77
				c-0.75-13.99-4.34-27.3-9.48-40.25c-0.33-0.83-0.59-1.68-0.89-2.53c0.47-1.98,1.28-2.72,3.19-2.52c2.25,0.24,4.46,0.7,6.37,2.06
				c0.87,0.62,1.74,1.32,2.8,1.54c3.22,0.68,5.85,2.53,8.6,4.18c4.94,2.95,10.36,4.38,16.08,4.71c1.72,0.1,3.41,0.44,5.14,0.42
				c0.93-0.01,1.54,0.57,1.94,1.36c1.32,2.55,3.56,4.47,4.83,7.06c0.16,0.32,0.42,0.59,0.7,0.81c5.37,4.08,10.87,7.95,17.54,9.63
				c2.37,0.6,4.79,0.88,7.24,0.8c3.91-0.13,7.84,0.35,11.74-0.31c4.23-0.72,7.83-2.75,10.97-5.6c1.44-1.3,2.97-2.26,4.92-2.68
				c2.33-0.5,4.36-1.86,6.47-2.93c5.82-2.96,10.82-7.1,15.82-11.24c1.04-0.86,1.86-2.27,3.55-2.06c-3.81,8.95-4.32,18.64-6.19,28.02
				c-0.37,1.87-0.83,3.71-1.26,5.57c-2.99,7.02-8.8,11.44-14.65,15.74c-4.94,3.64-9.73,7.45-14.58,11.19
				c-5.21,4.03-10.96,6.92-17.88,6.42c-1.23-0.09-1.83-0.36-2.12-1.75c-0.84-4.08-3.23-5.45-7.34-5.22
				c-7.62,0.42-14.57,3.26-21.6,5.79c-7.74,2.78-15.59,5.23-23.79,5.98c-7.34,0.68-14.75,0.58-22.03-0.71
				c-3.44-0.61-6.6-2.39-9.7-3.99c-3.41-1.77-7.29-2.69-10.19-5.43c-2.64-2.49-5.37-4.89-7.91-7.49
				c-9.91-10.14-20.71-19.34-30.74-29.36c-5.01-5-9.87-10.16-14.63-15.41c-3.35-3.7-7-7.12-10.77-10.41
				c-4.16-3.63-8.22-7.41-11.41-12.01c-1.63-2.34-3.48-4.51-5.7-6.32c-3.88-4.52-7.72-9.05-10.85-14.17
				c-1.68-2.75-1.82-5.23-0.49-8.08c2.94-6.36,6.58-12.31,10.32-18.2c12.5-19.69,24.92-39.43,39.43-57.74
				c2.23-2.81,4.36-5.69,8.13-6.63c0.92-0.23,1.42-0.35,1.55,0.83c0.14,1.29,1.1,2.23,1.65,3.35c1.61,3.23,1.9,6.75,2.38,10.24
				c0.2,1.47,0.5,2.93,0.77,4.4c0.06,0.31,0.19,0.59,0.57,0.54c0.28-0.04,0.34-0.28,0.39-0.52c1.22-6.21,2.94-12.44-0.91-18.87
				c1.97,0.42,3.5,0.71,5,1.09c0.76,0.19,0.76,1.01,0.96,1.61c1.36,4.15,2.12,8.44,2.95,12.72c0.1,0.5-0.06,1.3,0.63,1.3
				c0.75,0,0.62-0.83,0.76-1.38c1.07-4.1,1.44-8.2,0.07-12.49c12.59,5.68,25.73,9.55,38.89,13.99c-9.87,8.91-10.51,20.17-8.9,32.04
				c-0.42,0.38-0.91,0.28-1.35,0.1c-3.16-1.3-6.58-1.55-9.84-2.48c-4.08-1.16-7.7-3.09-10.87-5.91c-1.27-1.13-2.71-1.91-4.36-2.33
				c-2.5-0.64-4.34,0.1-5.87,2.21c-4.6,6.34-7.57,13.49-10.37,20.73c-0.84,2.17-1.64,4.35-2.56,6.49c-0.6,1.39-1.4,2.64-2.51,3.67
				c-2.49,2.32-4.63,4.96-6.78,7.58c-0.69,0.84-1.25,1.74-1.43,2.84c-0.37,2.32,0.9,4.13,3.2,4.56c2.17,0.41,4.37,0.51,6.57,0.39
				c1.81-0.09,3.39,0.43,4.88,1.39c5.55,3.59,10.77,7.61,15.71,12.03c9.47,8.47,17.52,18.16,24.65,28.63
				c7.95,11.69,14.1,24.33,18.84,37.66c0.36,1.01,0.72,2.03,1.08,3.04C255.27,308.76,255.81,309.46,256.81,309.75z"/>
			<path class="st0" d="M375.14,262.57c-3.29,2.07-6.06,4.79-9.07,7.2c-4.64,3.7-9.64,7-15.16,8.92c-3.42,1.19-5.95,3.19-8.71,5.18
				c-3.61,2.6-7.68,4.06-12.15,4.06c-4.87,0-9.76,0.28-14.58-0.59c-4.15-0.75-7.89-2.6-11.46-4.78c-1.93-1.18-3.76-2.52-5.63-3.78
				c-1.66-1.12-2.91-2.55-3.89-4.33c-1.11-2.02-3.04-3.5-3.85-5.76c-0.25-0.68-0.99-0.55-1.57-0.55c-5.01-0.04-9.9-0.75-14.74-2.19
				c-3.68-1.1-6.77-3.13-9.94-5.12c-0.87-0.55-1.75-1-2.75-1.2c-1.83-0.37-3.49-1.12-5-2.24c-1.93-1.43-4.25-1.75-6.52-2.2
				c-1.73-0.34-2.11,1.22-2.9,2.19c-3.03-6.68-6.23-13.27-9.94-19.6c-4.04-6.9-8.21-13.71-12.91-20.18
				c-3.09-4.24-6.8-7.8-11.37-10.41c-0.49-0.28-1.1-0.46-1.34-1.1c0.52-0.36,0.78,0.13,1.07,0.35c2.23,1.63,4.62,2.11,7.23,1.07
				c0.72-0.29,1.31-0.38,1.27,0.69c-0.16,4.26,2.28,7.25,5.2,9.74c6.01,5.11,12.37,9.79,20.28,11.46c2.66,0.56,4.72,1.55,6.93,3.21
				c4.89,3.66,9.93,7.15,14.99,10.6c0.36,0.24,0.74,0.5,1.12,0.17c0.41-0.34,0.12-0.76,0.01-1.16c-0.65-2.35-2.34-4.02-3.93-5.67
				c-2.72-2.81-5.56-5.51-9.01-7.81c8.78-3.7,15.05-10.4,21.89-17.26c-1.54,3.45-2.51,6.59-3.51,9.72
				c-1.78,5.57-1.72,11.02,0.7,16.4c1.56,3.45,4.21,6.08,7.15,8.08c8.46,5.77,17.72,7.48,27.65,4.28c0.62-0.2,1.2-0.51,1.8-0.78
				c0.59-0.26,1.17-0.53,2.11-0.95c-0.61,1.87-1.12,3.41-1.62,4.95c-2.52,7.85,0.29,14.39,6.64,19.87c4.09,3.52,8.73,6.16,14.3,6.75
				c2.34,0.25,4.48-0.15,6.57-1.11c3.63-1.68,6.48-4.41,9.35-7.1c4.78-4.48,9.46-9.07,14.28-13.5c4.47-4.11,9.07-8.08,13.61-12.1
				c0.25-0.22,0.55-0.41,1.25-0.92C378.18,251.31,377.28,257.06,375.14,262.57z"/>
			<path class="st2" d="M282.5,215.92c1.83-4.74,4.36-9.14,6.46-13.74c3.56-7.78,8.14-14.85,13.52-21.56
				c7.14-8.91,13.56-18.4,20.25-27.67c1.22-1.7,2.46-3.37,3.95-4.83c4.77-4.67,10.33-4.49,15.88-2.11c6.36,2.73,11.85,7,17.44,11.04
				c0.24,0.17,0.41,0.43,0.61,0.65c1.55,2.63,0.58,5.38,0.2,8.03c-0.65,4.53-2.97,8.46-5.44,12.15
				c-6.11,9.09-11.38,18.74-18.13,27.41c-4.1,5.27-8.47,10.29-12.83,15.32c-0.42,0.49-0.83,1.08-1.63,0.68
				c-2.85-7.94-8.99-12.4-16.36-15.53c-2.74-1.16-5.47-2.21-8.57-2.02c-2.91,0.18-5.4,0.7-6.47,3.91c-0.39,1.18-1.38,2.08-2.03,3.14
				c-1.91,3.1-3.59,6.31-4.84,9.75c-0.27,0.75-0.36,1.84-1.62,1.75C281.71,220.22,282.01,218.07,282.5,215.92z"/>
			<path class="st0" d="M256.81,309.75c-1.29,0.72-1.71-0.19-2.05-1.13c-1.71-4.65-3.38-9.3-5.3-13.86
				c-7.01-16.64-16.62-31.62-28.6-45.07c-7.52-8.44-15.84-15.96-25.32-22.15c-2.1-1.38-4.21-2.31-6.81-2.07
				c-1.52,0.14-3.08-0.12-4.62-0.2c-1.91-0.1-3.51-0.75-4.29-2.64c-0.78-1.89-0.34-3.67,0.85-5.22c1.23-1.6,2.4-3.34,3.93-4.61
				c4.28-3.54,6.39-8.29,8.23-13.34c2.66-7.29,5.79-14.38,10.29-20.77c1.82-2.59,3.9-3.4,6.92-2.49c1.44,0.44,2.79,1.1,3.88,2.12
				c4.04,3.8,8.92,5.85,14.27,6.81c2.64,0.48,5.18,1.29,7.73,2.06c2.55,2.85,5.71,4.48,9.47,5.26c6.38,1.32,12.79,1.44,19.08,0.03
				c8.25-1.85,13.85-6.93,16.15-15.11c1.07,4.12-0.37,7.94-2.27,11.67c-0.95,1.87-2.35,3.32-4.18,4.28
				c-8.39,4.42-17.32,6.82-26.8,7.04c-1.31,0.03-2.6-0.25-3.86-0.59c-7.31-1.97-14.36-4.62-21.12-8.05
				c-1.54-0.78-3.09-1.54-4.7-2.14c-2.63-0.98-4.92-0.11-5.93,2.37c-3.72,9.14-9.68,16.64-16.71,23.38
				c-0.22,0.21-0.44,0.4-0.64,0.62c-0.27,0.3-0.78,0.56-0.54,1.02c0.32,0.63,0.82,0.19,1.23,0.04c3.77-1.39,7.25-3.31,10.43-5.75
				c0.95-0.73,1.44-0.59,2.4,0.05c8.98,6.01,14.14,15.18,19.75,23.95c5.59,8.73,11.04,17.56,15.25,27.1
				c6.56,14.86,11.13,30.31,13.81,46.34C256.81,309.03,256.79,309.4,256.81,309.75z"/>
			<path class="st2" d="M287.64,178.78c-0.25-3.03-0.48-6.06-1.27-9.02c-1.05-3.96-3.34-6.7-7.13-8.34
				c-8.69-3.75-17.61-6.84-26.54-9.89c-1.93-0.66-1.94-0.66-0.73-2.29c7.23-9.69,13.9-19.79,21.39-29.29
				c3.35-4.26,6.97-8.15,11.78-10.72c3.63-1.94,7.31-3.02,11.61-2.02c6.05,1.41,11.97,2.99,17.25,6.42c3.36,2.18,5.9,5.12,7.78,8.65
				c0.65,1.38,0.25,2.78,0.17,4.2c-0.31,4.89-1.96,9.23-4.54,13.38c-7.39,11.86-15.88,22.89-24.7,33.68
				c-1.13,1.38-2.21,2.8-3.35,4.19C288.9,178.27,288.5,178.91,287.64,178.78z"/>
			<path class="st2" d="M237.34,145.87c-6.52-1.24-12.54-4-18.74-6.21c-4.76-1.69-9.27-4.04-14.15-5.39
				c-1.47-0.41-0.88-1.01-0.36-1.72c7.34-9.91,13.86-20.4,21.33-30.22c3.64-4.79,7.08-9.7,11.42-13.93
				c5.84-5.69,12.44-6.94,20.47-2.58c3.29,1.79,6.52,3.7,9.99,5.13c1.93,0.79,3.4,2.14,4.64,3.77c0.27,2.12-0.6,3.97-1.45,5.8
				c-3.07,6.61-7.13,12.63-10.88,18.85c-3.86,6.42-8.67,12.03-13.83,17.4c-2.18,2.27-4.13,4.75-6.18,7.14
				C238.94,144.67,238.32,145.47,237.34,145.87z"/>
			<path class="st2" d="M334.63,227.87c2.77-4.16,5.99-7.98,9.05-11.91c5.5-7.04,11.09-13.99,16.67-20.96
				c1.83-2.28,3.88-4.35,6.12-6.23c4.53-3.81,8.7-4.39,13.44-0.86c4.88,3.63,9.91,7.23,13.64,12.21c0.25,0.33,0.46,0.69,0.68,1.04
				c0.25,0.44,0.23,0.9,0.17,1.39c-0.34,2.91-0.84,5.78-1.55,8.62c-0.98,3.93-3.27,7.14-6.01,9.98
				c-4.88,5.04-9.69,10.19-14.89,14.88c-5.35,4.83-10.4,9.93-15.52,14.98c-0.84,0.83-1.75,1.48-3,0.79c-1.3-2.33-2.19-4.88-4.1-6.87
				c-3.59-3.74-7.78-6.41-12.8-7.73c-0.86-0.23-1.76-0.16-2.65-0.16c-1.59,0.01-2.53,0.74-3.06,2.22c-0.79,2.22-1.97,4.2-3.93,5.62
				c-0.54,0.1-1.11,0.79-1.6,0.2c-0.48-0.57-0.01-1.24,0.21-1.84c1.81-4.96,4.84-9.2,7.9-13.41
				C333.88,229.19,334.3,228.56,334.63,227.87z"/>
			<path class="st0" d="M282.5,215.92c0.19,2.19-0.09,4.43,0.73,6.55c0.6,0.66,0.24,1.39,0.04,2.03
				c-1.33,4.35,1.82,11.17,6.07,12.73c1.83,0.68,3.48,1.82,5.31,2.52c3.43,1.32,7.03,1.38,10.55,0.94c3.03-0.38,5.45-2.41,7.54-4.52
				c3.89-3.9,7.08-8.35,9.34-13.43c0.23-0.51,0.21-1.21,0.92-1.43c2.64-2.97,5.35-5.88,7.92-8.91c6.99-8.22,13.04-17.11,18.58-26.38
				c2.62-4.39,5.73-8.46,8.12-13.01c2.55-4.86,3.71-9.87,2.97-15.32c3.62,3.08,6.46,6.57,5.82,11.76c-0.36,2.89-1.48,5.55-3,7.98
				c-4.76,7.57-9.76,14.96-15.5,21.85c-8.24,9.88-15.84,20.28-23.68,30.48c-2.71,3.53-5.37,7.13-8.85,10.02
				c-6.96,5.77-14.71,6.45-22.97,3.73c-3.1-1.02-6.06-2.36-8.58-4.61c-3.26-2.92-5.08-6.43-4.76-10.83
				C279.38,223.81,280.85,219.82,282.5,215.92z"/>
			<path class="st2" d="M239.73,180.44c-0.4-8.09,1.5-15.45,6.57-21.91c1.24-1.58,2.15-2.02,4.2-1.22
				c7.01,2.74,14.18,5.1,21.15,7.98c3.99,1.65,5.22,3.38,5.19,7.72c-0.02,2.99-0.79,5.76-2.28,8.35c-0.43,0.75-1,1.3-1.69,1.78
				c-1.92,1.85-4.44,2.14-6.87,2.67c-6.15,1.33-12.29,0.99-18.36-0.36C244.5,184.75,241.61,183.31,239.73,180.44z"/>
			<path class="st0" d="M353.65,251.79c0.86,0.04,1.57-0.15,2.22-0.83c9.35-9.91,19.67-18.83,29.23-28.53
				c5.21-5.28,8.04-11.37,8.7-18.64c0.08-0.89,0.28-1.76,0.43-2.64c5.53,4.79,5.89,9.19,2.51,16.52c-1.2,2.61-3.18,4.73-5.19,6.78
				c-9.4,9.56-19.31,18.56-29.33,27.45c-5.48,4.86-10.41,10.3-15.64,15.42c-1.15,1.13-2.35,2.19-3.5,3.31
				c-3.93,3.83-8.45,4.34-13.3,2.2c-4.12-1.82-7.83-4.22-10.54-8c-1.37-1.91-2.26-3.93-2.17-6.29c0.15-4.14,1.19-7.99,3.65-11.41
				c4.39-6.09,8.75-12.21,13.12-18.31c0.24-0.34,0.53-0.64,0.8-0.95c0.12,0.81-0.47,1.29-0.87,1.86c-3.33,4.75-6.55,9.56-8.33,15.28
				c0.53-0.18,0.95-0.32,1.37-0.46c0.24,0.99-0.52,1.51-1.01,2.15c-2.1,2.77-3.93,5.61-3.95,9.33c-0.02,3.64,1.5,6.73,4.08,8.78
				c6.37,5.06,10.04,5.32,16.67,0.47c4.57-3.35,8.06-7.84,10.57-13.01C353.27,252.04,353.4,251.86,353.65,251.79z"/>
			<path class="st0" d="M287.64,178.78c2.29-2.01,4-4.55,5.88-6.91c8.34-10.46,16.49-21.07,23.66-32.42
				c3.38-5.35,4.39-11.09,4.6-17.17c3.17,6.02,3.93,12.15,0.95,18.5c-2.71,5.76-6.37,10.87-10.16,15.94
				c-5.53,7.39-10.67,15.08-16.53,22.21c-5.71,6.96-10.6,14.53-16.13,21.62c-5.25,6.74-10.83,13.13-17.5,18.51
				c-3.43,2.77-7.24,4.53-11.63,4.95c-2.08,0.2-4.06-0.45-5.85-1.32c-6.26-3.03-12.33-6.43-17.48-11.22
				c-1.72-1.6-1.44-3.83-1.44-5.87c0-0.98,0.52-1.95,0.77-2.93c0.19-0.71,0.54-1.03,1.29-0.72c0.65,0.28,1.15,0.57,0.86,1.45
				c-1.49,4.49,1.9,9.33,5.39,11.18c2.26,1.2,4.46,2.51,6.8,3.54c7.56,3.31,14.65,2.69,21.1-2.79c3.88-3.3,7.49-6.81,9.63-11.57
				c0.5-1.1,1.16-2,2.35-2.54c9.37-4.27,13.18-12,13.39-21.93C287.59,179.13,287.62,178.95,287.64,178.78z"/>
			<path class="st0" d="M237.34,145.87c4.8-5.51,9.34-11.26,14.63-16.33c2.17-2.07,3.48-4.81,5.13-7.28
				c3.31-4.95,6.51-9.97,9.44-15.15c2.23-3.94,4.48-7.87,5.39-12.39c1.9,3.34,1.62,6.88,0.67,10.36c-1.44,5.27-3.81,10.15-6.82,14.7
				c-6.14,9.29-12.27,18.58-18.69,27.68c-0.83,1.18-1.57,1.51-2.93,0.94C241.94,147.46,239.63,146.7,237.34,145.87z"/>
			<path class="st0" d="M266.29,204.58c-3.42,4.88-7.11,9.22-12.86,10.7c-3.32,0.85-6.86,0.27-10.07-1.24
				c-2.31-1.08-4.6-2.23-6.84-3.44c-2-1.09-3.35-2.8-4.17-4.93c-0.2-0.5-0.38-1.08,0.06-1.51c0.4-0.39,0.89-0.04,1.34,0.07
				c3.51,0.88,6.81,2.49,10.42,3.03c6.74,0.99,13.22-0.48,19.65-2.26c0.57-0.16,1.13-0.36,1.7-0.52
				C265.61,204.44,265.74,204.5,266.29,204.58z"/>
			<path class="st3" d="M239.73,180.44c3.9,3.53,8.46,4.97,13.7,5.35c5.88,0.44,11.55,0.07,17.13-1.75c0.78-0.26,1.54-0.6,2.31-0.91
				c-2.86,3.93-6.9,5.62-11.55,6.12c-5.59,0.6-10.97-0.74-16.35-1.95c-1.07-0.24-1.97-0.83-2.9-1.34
				C239.36,184.46,239.02,183.6,239.73,180.44z"/>
			<path class="st4" d="M217.31,203.4c-0.31-0.07-0.71-0.16-1.11-0.25c-1.51-0.32-1.98-0.94-0.91-2.37
				c0.67-0.88,1.09-1.97,1.52-3.01c0.37-0.89,0.82-1.01,1.63-0.56c1.08,0.62,2.22,1.13,3.32,1.72c0.55,0.29,1.38,0.42,1.15,1.32
				c-0.19,0.77-0.21,1.64-1.22,2C220.29,202.76,218.91,203.27,217.31,203.4z"/>
			<path class="st5" d="M187.65,151.64c-0.12,0.87-0.59,1.77-1.23,2.56c-9.78,12.24-18.08,25.56-27.42,38.13
				c-3.26,4.39-6.01,9.17-9.49,13.41c-3.62,4.42-7.31,8.77-11.01,13.12c-0.38,0.45-0.83,1.36-1.47,1.02
				c-0.85-0.46-0.1-1.35,0.08-1.91c1.11-3.49,3.07-6.58,4.91-9.71c3.74-6.37,7.54-12.72,12.06-18.56
				c5.62-7.24,10.94-14.71,16.6-21.92c3.15-4.02,5.95-8.33,9.22-12.28c1.78-2.15,3.82-3.9,6.57-4.68
				C187.16,150.62,187.65,150.51,187.65,151.64z"/>
			<path class="st5" d="M214.4,146.98c3.13,0.18,5.91,1.44,8.73,2.49c2.82,1.06,5.83,1.67,8.37,3.43c0.29,0.2,0.65,0.33,0.89,0.58
				c0.63,0.66,1.92,1.17,1.64,2.11c-0.34,1.13-1.71,1.14-2.77,1.09c-3.42-0.17-6.62-1.2-9.7-2.66c-2.69-1.28-5.23-2.8-7.75-4.39
				c-0.72-0.45-1.84-0.68-1.5-1.88C212.63,146.59,213.72,147.22,214.4,146.98z"/>
			<path class="st1" d="M323.01,221.31c-0.55,2.43-1.82,4.55-3.15,6.57c-2.48,3.78-5.14,7.38-8.68,10.34
				c-4.49,3.75-9.5,3.55-14.67,2.56c-3.31-0.64-6.22-2.38-9.04-4.11c-3.6-2.21-5.59-7.59-4.74-11.95c0.15-0.76,0.33-1.51,0.5-2.26
				c2.02-6.18,5.59-11.56,8.81-17.12c0.48-0.83,1.17-1.36,2.07-1.56c3.18-0.71,6.31-0.7,9.49,0.27c6.57,2.02,11.84,5.96,16.46,10.88
				C321.71,216.69,322.87,218.79,323.01,221.31z"/>
			<path class="st5" d="M345.66,151.9c-0.14,0.62-0.74,0.67-1.21,0.85c-2.29,0.88-4.72,1.14-7.13,1.4
				c-1.26,0.14-2.26,0.65-3.18,1.43c-3.37,2.84-6.44,5.93-9.21,9.4c-7.32,9.15-14.57,18.37-22.48,27.02
				c-1.69,1.84-3.49,3.58-5.25,5.36c-0.33,0.33-0.71,0.79-1.21,0.43c-0.48-0.35,0.01-0.76,0.16-1.1c1.78-4.16,4.7-7.56,7.37-11.12
				c5.31-7.11,10.15-14.55,15.43-21.68c3.29-4.45,6.86-8.68,11.2-12.2c4.68-3.8,10.33-2.82,14.93-0.66
				C345.4,151.18,345.65,151.45,345.66,151.9z"/>
			<path class="st5" d="M294.29,110.07c3.64-0.01,6.95,1.49,10.28,2.89c0.4,0.17,0.83,0.38,0.67,0.88
				c-0.14,0.43-0.59,0.52-1.03,0.57c-2.53,0.29-5.06,0.88-7.6,0.66c-4.09-0.34-7.25,1.33-10.03,4.08
				c-4.58,4.52-8.72,9.45-13.01,14.23c-4.66,5.18-9.15,10.5-13.86,15.63c-0.76,0.83-1.63,2.13-2.96,1.2c-1.42-1-0.29-2.24,0.26-3.15
				c2.73-4.54,5.47-9.09,8.76-13.26c4.58-5.79,9.08-11.66,14.41-16.8c3.2-3.08,6.73-5.67,11.18-6.71
				C292.31,110.08,293.25,110.13,294.29,110.07z"/>
			<path class="st5" d="M257.79,88.81c-0.08,0.7-0.53,0.81-1.02,0.89c-2.04,0.34-4.08,0.93-6.12,0.98c-3.86,0.1-6.55,2.08-8.93,4.82
				c-5.32,6.12-9.88,12.81-14.69,19.31c-4.17,5.65-8.57,11.13-14.08,15.58c-0.45,0.37-0.96,1.03-1.51,0.69
				c-0.63-0.39-0.08-1.08,0.09-1.61c1.27-4.09,3.43-7.74,5.92-11.16c4.39-6.02,8.29-12.36,12.24-18.66
				c2.91-4.64,6.88-8.3,11.19-11.65c4.09-3.18,12.87-2.03,16.29,0.28C257.42,88.43,257.61,88.65,257.79,88.81z"/>
			<path class="st1" d="M353.65,251.79c-0.13,1.16-0.56,2.22-1.24,3.13c-2.92,3.91-5.7,7.95-9.65,10.94
				c-1.87,1.42-4.02,2.24-6.23,3.01c-3.89,1.37-11.12-2.9-13.13-6.23c-3.67-6.08-2.1-10.85,1.89-16.12c0.5-0.66,1.01-1.32,1.51-1.98
				c1.45-1.35,2.58-2.92,3.35-4.78c1.32-3.2,2.54-3.88,5.95-3.12c5.26,1.16,9.64,3.91,13.39,7.75
				C351.54,246.49,352.79,249.03,353.65,251.79z"/>
			<path class="st5" d="M374.76,189.3c3.68,0.33,7.06,1.51,10.05,3.71c0.99,0.73,1.08,1.35-0.33,1.77c-2.18,0.66-4.42,0.98-6.65,0.7
				c-2.38-0.29-4.27,0.31-5.93,2.05c-4.97,5.21-10.21,10.15-15.12,15.42c-5.11,5.48-10.63,10.55-16.64,15.06
				c-0.23,0.18-0.51,0.31-0.76,0.47c-0.31,0.2-0.66,0.39-0.96,0.09c-0.33-0.34,0.02-0.71,0.17-0.96c1.48-2.44,2.83-5.03,4.82-7.07
				c6.71-6.89,12.06-14.88,18.05-22.34c2.85-3.55,6.13-6.67,10.52-8.32C372.87,189.53,373.77,189.23,374.76,189.3z"/>
			<path class="st5" d="M265.94,170.36c-1.23-0.08-2.81-0.81-4.39-1.45c-3.85-1.57-7.66-3.23-11.47-4.89
				c-1.72-0.75-2.58-2.05-2.09-3.27c0.63-1.58,2.07-1.85,3.44-1.45c4.95,1.45,9.88,3.04,14.14,6.11c0.97,0.7,1.87,1.49,2.4,2.6
				C268.72,169.62,268.25,170.36,265.94,170.36z"/>
			<path class="st2" d="M287.48,223.32c0.47-5.74,3-10.6,6.42-15.07c0.31-0.4,0.65-0.68,1.19-0.65c1.48,0.09,3.04-0.1,4.43,0.3
				c7.01,2,13.02,5.63,17.7,11.36c1.05,1.28,1.17,2.42,0.22,3.85c-1.67,2.53-3.2,5.17-5.36,7.33c-2.13,2.17-5.01,2-7.66,2.34
				c-5.02,0.63-9.54-1.09-13.63-3.78C288.9,227.76,287.1,226.08,287.48,223.32z"/>
			<path class="st6" d="M287.48,223.32c0.26,2.56,1.92,4.27,3.86,5.5c6.59,4.18,13.56,4.57,20.74,1.62
				c-1.79,3.04-4.31,5.57-7.73,5.95c-3.21,0.36-6.62-0.14-9.71-1.61c-0.75-0.36-1.51-0.7-2.28-1
				C287.87,232.06,285.95,227.94,287.48,223.32z"/>
			<path class="st2" d="M327.1,249.78c1.06-2.44,3.06-4.2,4.58-6.32c2.11-2.96,2.17-2.87,5.57-1.53c3.59,1.41,6.73,3.48,9.48,6.19
				c0.92,0.91,1.44,2.02,2.05,3.11c0.3,0.54,0.26,1.02-0.12,1.48c-1.5,1.83-2.89,3.76-4.75,5.27c-2.26,2.4-5.12,3.29-8.23,2.63
				c-3.77-0.81-6.62-3.08-8.26-6.67C326.81,252.62,326.54,251.22,327.1,249.78z"/>
			<path class="st3" d="M327.1,249.78c0.03,3.98,1.88,6.86,5.18,8.94c3.28,2.06,6.56,2.06,9.9,0.2c0.57-0.32,1.14-0.62,1.71-0.94
				c-2.19,4.5-8.03,7.59-11.33,6.07C325.31,260.71,324.08,254.7,327.1,249.78z"/>
		</g>
	</g>
</g>
<g id="DESIGNED_BY_FREEPIK">
</g>
</svg>
